<?xml version="1.0" standalone="no"?>
<!DOCTYPE svg PUBLIC "-//W3C//DTD SVG 20010904//EN"
 "http://www.w3.org/TR/2001/REC-SVG-20010904/DTD/svg10.dtd">
<svg version="1.0" xmlns="http://www.w3.org/2000/svg"
 width="500.000000pt" height="500.000000pt" viewBox="0 0 500.000000 500.000000"
 preserveAspectRatio="xMidYMid meet">

<g transform="translate(0.000000,500.000000) scale(0.100000,-0.100000)"
fill="#000000" stroke="none">
<path d="M0 2500 l0 -2500 2500 0 2500 0 0 2500 0 2500 -2500 0 -2500 0 0
-2500z m2164 1121 c196 -53 336 -162 415 -321 50 -102 75 -222 67 -321 l-6
-67 248 -5 c211 -4 259 -7 327 -26 250 -66 422 -238 468 -466 l14 -70 -85 -3
c-46 -2 -86 -1 -88 1 -3 2 -11 31 -19 63 -25 95 -87 213 -146 278 -118 129
-251 185 -466 193 l-133 6 0 -272 0 -271 -75 0 -75 0 0 208 -1 207 -37 -71
c-69 -129 -151 -210 -278 -273 -120 -59 -150 -64 -496 -68 -202 -3 -318 -1
-318 5 0 5 11 17 24 25 49 33 51 52 51 622 0 571 -2 595 -51 617 -13 6 -24 18
-24 26 0 12 43 13 303 10 269 -5 311 -7 381 -27z m-1324 -1316 c39 -20 60 -53
60 -93 0 -68 -44 -102 -130 -102 l-50 0 0 105 0 105 45 0 c26 0 59 -7 75 -15z
m210 -90 c0 -87 -3 -105 -15 -105 -12 0 -15 18 -15 105 0 87 3 105 15 105 12
0 15 -18 15 -105z m216 30 l59 -76 6 78 5 78 2 -107 c1 -60 0 -108 -2 -108 -2
0 -32 37 -67 81 l-64 82 -3 -82 c-4 -119 -22 -100 -22 24 0 82 3 105 14 105 7
0 40 -34 72 -75z m244 -30 c0 -87 -3 -105 -15 -105 -12 0 -15 18 -15 105 0 87
3 105 15 105 12 0 15 -18 15 -105z m270 94 c0 -6 -12 -9 -27 -7 l-28 3 -3 -97
c-2 -89 -4 -98 -22 -98 -18 0 -20 9 -22 98 l-3 97 -27 -3 c-16 -2 -28 1 -28 7
0 7 30 11 80 11 50 0 80 -4 80 -11z m140 -34 l0 -45 50 0 50 0 0 45 c0 33 4
45 15 45 12 0 15 -18 15 -105 0 -87 -3 -105 -15 -105 -11 0 -15 12 -15 50 l0
50 -50 0 -50 0 0 -50 c0 -38 -4 -50 -15 -50 -12 0 -15 18 -15 105 0 87 3 105
15 105 11 0 15 -12 15 -45z m290 -60 c0 -87 -3 -105 -15 -105 -12 0 -15 18
-15 105 0 87 3 105 15 105 12 0 15 -18 15 -105z m415 91 c77 -33 86 -144 14
-182 -16 -8 -51 -14 -79 -14 l-50 0 0 105 0 105 40 0 c22 0 56 -6 75 -14z
m305 4 c0 -6 -19 -9 -42 -8 -43 3 -43 3 -46 -34 -3 -37 -3 -38 32 -38 20 0 36
-4 36 -10 0 -5 -16 -10 -35 -10 -35 0 -35 0 -35 -45 l0 -44 50 6 c34 4 50 2
50 -6 0 -7 -23 -11 -65 -11 l-65 0 0 105 0 105 60 0 c34 0 60 -4 60 -10z m403
4 c15 -15 -6 -21 -39 -11 -28 9 -37 8 -44 -3 -13 -20 4 -45 52 -77 76 -50 57
-113 -33 -113 -26 0 -51 4 -54 10 -4 6 10 8 38 4 39 -6 46 -4 57 15 14 27 3
42 -52 77 -29 19 -38 31 -38 52 0 15 5 33 12 40 12 12 90 17 101 6z m177 -99
c0 -87 -3 -105 -15 -105 -12 0 -15 18 -15 105 0 87 3 105 15 105 12 0 15 -18
15 -105z m162 8 l3 -98 43 3 c23 1 42 -2 42 -8 0 -6 -26 -10 -60 -10 l-60 0 0
105 c0 86 3 105 15 105 11 0 15 -20 17 -97z m243 20 c16 -39 33 -75 36 -78 4
-3 19 30 34 75 16 44 32 80 37 80 11 0 13 8 -31 -105 -21 -55 -42 -99 -47 -98
-7 1 -94 187 -94 200 0 2 8 3 17 1 11 -2 29 -31 48 -75z m348 -28 c39 -91 43
-105 27 -105 -10 0 -23 12 -30 30 -11 27 -17 30 -57 30 -41 0 -46 -3 -56 -30
-6 -16 -15 -30 -20 -30 -11 0 -8 6 41 122 20 48 40 88 43 88 4 0 27 -47 52
-105z m-1501 -332 c3 -200 8 -221 55 -242 36 -16 277 -13 351 4 182 43 295
160 337 350 l17 75 74 0 c44 0 74 -4 74 -10 0 -6 -11 -37 -24 -69 -54 -134
-162 -251 -290 -315 -129 -65 -157 -69 -499 -74 -296 -3 -310 -3 -353 17 -24
12 -45 21 -48 21 -2 0 -15 -18 -30 -40 -42 -64 -93 -84 -208 -85 -53 0 -100 4
-105 8 -4 5 6 20 22 33 51 41 126 73 204 85 l75 13 -55 18 c-64 22 -227 63
-286 73 l-42 7 -11 -41 c-14 -53 -52 -97 -109 -126 -54 -27 -160 -60 -168 -51
-3 2 14 33 38 67 35 49 61 72 121 108 l78 46 -43 8 c-53 11 -357 1 -417 -13
-25 -5 -56 -13 -69 -16 -19 -4 -22 -10 -18 -32 8 -41 -11 -106 -45 -146 -30
-37 -138 -116 -157 -116 -14 0 -14 5 3 62 20 66 32 85 90 153 28 32 43 56 33
52 -48 -18 -148 -19 -217 -1 -39 10 -69 22 -67 28 2 5 34 23 73 40 52 22 85
29 135 30 60 1 72 -2 110 -30 l44 -32 65 14 c36 7 105 17 155 20 72 6 85 9 65
17 -99 38 -152 71 -192 119 l-43 51 71 -6 c133 -13 213 -57 239 -132 l13 -40
124 -12 c69 -7 156 -19 194 -27 l69 -15 -30 22 c-67 49 -108 94 -136 149 -16
31 -29 60 -29 63 0 24 156 -52 203 -99 28 -28 39 -50 48 -95 13 -59 13 -60 58
-71 25 -6 86 -27 135 -46 90 -35 90 -35 116 -16 37 28 48 88 49 270 l1 162 74
0 74 0 4 -187z"/>
<path d="M1710 3043 c0 -399 3 -590 11 -612 18 -51 50 -61 196 -61 71 0 157 7
194 14 239 51 359 233 361 546 0 151 -18 243 -72 355 -70 147 -190 251 -345
301 -63 21 -108 27 -212 31 l-133 6 0 -580z"/>
<path d="M763 2303 c-9 -3 -13 -32 -13 -94 l0 -89 29 0 c62 0 102 65 80 130
-14 40 -63 67 -96 53z"/>
<path d="M2553 2303 c-9 -3 -13 -32 -13 -95 l0 -91 38 6 c49 8 72 38 72 92 0
36 -5 48 -31 69 -30 26 -42 29 -66 19z"/>
<path d="M4183 2230 l-20 -45 34 -3 c19 -2 37 -1 40 1 2 3 -4 25 -15 49 l-20
43 -19 -45z"/>
<path d="M2020 1954 c0 -4 14 -33 31 -65 29 -54 68 -92 159 -152 35 -24 38
-22 30 27 -8 53 -28 86 -73 120 -35 27 -147 80 -147 70z"/>
<path d="M1555 1901 c38 -40 67 -58 127 -81 114 -44 131 -38 86 31 -31 46
-115 86 -198 95 l-65 6 50 -51z"/>
<path d="M1200 1781 c-30 -10 -68 -25 -85 -33 l-29 -16 54 -16 c29 -9 72 -16
94 -16 46 1 163 24 174 35 10 10 -47 52 -81 59 -44 9 -66 7 -127 -13z"/>
<path d="M1930 1714 c-36 -20 -76 -46 -89 -58 -22 -20 -81 -99 -81 -109 0 -10
122 32 164 57 24 14 54 41 65 60 20 32 29 86 14 86 -5 0 -37 -16 -73 -36z"/>
<path d="M1337 1651 c-47 -50 -69 -83 -82 -122 -10 -30 -20 -60 -23 -68 -16
-43 146 89 174 141 15 29 19 118 5 118 -5 0 -38 -31 -74 -69z"/>
<path d="M2308 1625 c-72 -14 -92 -23 -150 -65 l-38 -28 31 -6 c96 -19 201 6
248 59 17 20 31 40 31 45 0 13 -39 11 -122 -5z"/>
</g>
</svg>
